<svg id="Layer_1" data-name="Layer 1" xmlns="http://www.w3.org/2000/svg" xmlns:xlink="http://www.w3.org/1999/xlink" viewBox="0 0 556 370"><defs><style>.cls-1{fill:none;}.cls-2{clip-path:url(#clip-path);}.cls-3{fill:#d2d3d3;}.cls-4{fill:#cdcccc;}.cls-5{fill:#e8e8e8;}.cls-6{fill:#d7d7d7;}.cls-7{fill:#dddddc;}.cls-8{fill:#d9d9d8;}.cls-9{fill:#c9c9c9;}.cls-10{fill:#cbcbcb;}.cls-11{fill:#e0e0df;}.cls-12{fill:#c0bfbf;}.cls-13{fill:#e9e9e9;}.cls-14{fill:#e2e2e2;}.cls-15{fill:#e4e4e4;}.cls-16{fill:#e3e3e3;}.cls-17{fill:#dbdada;}.cls-18{fill:#c4c4c4;}.cls-19{fill:#c8c7c7;}.cls-20{fill:#cfcfce;}.cls-21{fill:#c2c1c1;}.cls-22{fill:#cfd0d0;}.cls-23{fill:#d3d3d3;}.cls-24{fill:#d7d6d6;}.cls-25{fill:#d1d2d2;}.cls-26{fill:#e0e1e0;}.cls-27{fill:#f1f0f0;}.cls-28{fill:#e5e5e5;}.cls-29{fill:#d0d1d1;}.cls-30{fill:#e1e1e1;}.cls-31{fill:#dcdbdb;}.cls-32{fill:#c2c2c2;}.cls-33{fill:#c8c8c8;}.cls-34{fill:#f0efef;}.cls-35{fill:#ececec;}.cls-36{fill:#e6e6e5;}.cls-37{fill:#d4d4d4;}.cls-38{fill:#c7c6c6;}.cls-39{fill:#ebebeb;}.cls-40{fill:#f3f3f3;}.cls-41{fill:#e7e7e7;}.cls-42{fill:#f4f4f4;}.cls-43{fill:#dfdfde;}.cls-44{fill:#eaeaea;}.cls-45{fill:#dededd;}.cls-46{fill:#f2f2f2;}.cls-47{fill:#ededed;}.cls-48{fill:#d6d5d5;}.cls-49{fill:#d8d9d8;}.cls-50{fill:#efeeee;}.cls-51{fill:#fafafa;}.cls-52{fill:#f5f6f6;}.cls-53{fill:#f6f6f6;}.cls-54{fill:#f7f8f8;}.cls-55{fill:#cacaca;}</style><clipPath id="clip-path" transform="translate(9.5 10)"><rect class="cls-1" width="534.04" height="348"/></clipPath></defs><title>white_triangles</title><g class="cls-2"><polygon class="cls-3" points="0 0 7 154 12 100 0 0"/><polygon class="cls-4" points="7 154 4 291 13 213 7 154"/><polygon class="cls-5" points="12 100 7 154 15 137 12 100"/><polygon class="cls-6" points="13 213 4 291 15 236 13 213"/><polygon class="cls-7" points="0 0 12 100 16 63 0 0"/><polygon class="cls-8" points="7 154 13 213 19 169 7 154"/><polygon class="cls-9" points="15 137 7 154 19 169 15 137"/><polygon class="cls-5" points="0 0 16 63 20 19 0 0"/><polygon class="cls-10" points="4 291 0 370 21 327 4 291"/><polygon class="cls-11" points="0 370 6 366 21 327 0 370"/><polygon class="cls-12" points="15 236 4 291 30 291 15 236"/><polygon class="cls-13" points="4 291 21 327 30 291 4 291"/><polygon class="cls-14" points="20 19 16 63 34 43 20 19"/><polygon class="cls-15" points="19 169 13 213 36 172 19 169"/><polygon class="cls-16" points="15 137 19 169 37 136 15 137"/><polygon class="cls-17" points="19 169 36 172 37 136 19 169"/><polygon class="cls-5" points="12 100 15 137 37 136 12 100"/><polygon class="cls-8" points="13 213 15 236 41 246 13 213"/><polygon class="cls-18" points="15 236 30 291 41 246 15 236"/><polygon class="cls-4" points="12 100 37 136 48 98 12 100"/><polygon class="cls-19" points="16 63 12 100 48 98 16 63"/><polygon class="cls-20" points="41 246 30 291 52 291 41 246"/><polygon class="cls-7" points="30 291 21 327 52 291 30 291"/><polygon class="cls-21" points="21 327 6 366 55 341 21 327"/><polygon class="cls-22" points="52 291 21 327 55 341 52 291"/><polygon class="cls-23" points="6 366 0 370 58 366 6 366"/><polygon class="cls-23" points="55 341 6 366 58 366 55 341"/><polygon class="cls-24" points="34 43 16 63 60 64 34 43"/><polygon class="cls-23" points="16 63 48 98 60 64 16 63"/><polygon class="cls-25" points="36 172 13 213 61 209 36 172"/><polygon class="cls-20" points="13 213 41 246 61 209 13 213"/><polygon class="cls-26" points="20 19 34 43 66 39 20 19"/><polygon class="cls-27" points="34 43 60 64 66 39 34 43"/><polygon class="cls-25" points="37 136 36 172 70 175 37 136"/><polygon class="cls-17" points="36 172 61 209 70 175 36 172"/><polygon class="cls-11" points="0 0 20 19 80 1 0 0"/><polygon class="cls-28" points="20 19 66 39 80 1 20 19"/><polygon class="cls-29" points="48 98 37 136 80 120 48 98"/><polygon class="cls-17" points="37 136 70 175 81 169 37 136"/><polygon class="cls-26" points="80 120 37 136 81 169 80 120"/><polygon class="cls-22" points="41 246 52 291 84 241 41 246"/><polygon class="cls-30" points="61 209 41 246 84 241 61 209"/><polygon class="cls-31" points="80 1 66 39 89 15 80 1"/><polygon class="cls-16" points="66 39 60 64 95 47 66 39"/><polygon class="cls-22" points="89 15 66 39 95 47 89 15"/><polygon class="cls-15" points="60 64 48 98 95 96 60 64"/><polygon class="cls-29" points="48 98 80 120 95 96 48 98"/><polygon class="cls-6" points="95 47 60 64 97 70 95 47"/><polygon class="cls-28" points="60 64 95 96 97 70 60 64"/><polygon class="cls-25" points="61 209 84 241 102 195 61 209"/><polygon class="cls-24" points="70 175 61 209 102 195 70 175"/><polygon class="cls-20" points="81 169 70 175 102 195 81 169"/><polygon class="cls-9" points="55 341 58 366 103 336 55 341"/><polygon class="cls-17" points="52 291 55 341 103 336 52 291"/><polygon class="cls-32" points="84 241 52 291 105 287 84 241"/><polygon class="cls-28" points="52 291 103 336 105 287 52 291"/><polygon class="cls-8" points="103 336 58 366 113 365 103 336"/><polygon class="cls-11" points="80 120 81 169 114 156 80 120"/><polygon class="cls-24" points="81 169 102 195 114 156 81 169"/><polygon class="cls-14" points="95 96 80 120 119 141 95 96"/><polygon class="cls-25" points="80 120 114 156 119 141 80 120"/><polygon class="cls-19" points="105 287 103 336 124 287 105 287"/><polygon class="cls-28" points="84 241 105 287 124 257 84 241"/><polygon class="cls-33" points="105 287 124 287 124 257 105 287"/><polygon class="cls-34" points="97 70 95 96 126 101 97 70"/><polygon class="cls-27" points="95 96 119 141 126 101 95 96"/><polygon class="cls-34" points="95 47 97 70 132 73 95 47"/><polygon class="cls-17" points="97 70 126 101 132 73 97 70"/><polygon class="cls-35" points="95 47 132 73 140 45 95 47"/><polygon class="cls-6" points="89 15 95 47 140 19 89 15"/><polygon class="cls-11" points="95 47 140 45 140 19 95 47"/><polygon class="cls-28" points="80 1 89 15 141 5 80 1"/><polygon class="cls-36" points="89 15 140 19 141 5 89 15"/><polygon class="cls-10" points="103 336 113 365 142 325 103 336"/><polygon class="cls-20" points="124 287 103 336 142 325 124 287"/><polygon class="cls-37" points="102 195 84 241 144 235 102 195"/><polygon class="cls-38" points="84 241 124 257 144 235 84 241"/><polygon class="cls-11" points="114 156 102 195 153 171 114 156"/><polygon class="cls-16" points="102 195 144 235 153 171 102 195"/><polygon class="cls-39" points="119 141 114 156 153 171 119 141"/><polygon class="cls-15" points="80 1 141 5 160 0 80 1"/><polygon class="cls-40" points="141 5 140 19 160 0 141 5"/><polygon class="cls-8" points="124 257 124 287 161 254 124 257"/><polygon class="cls-16" points="144 235 124 257 161 254 144 235"/><polygon class="cls-7" points="126 101 119 141 165 137 126 101"/><polygon class="cls-35" points="119 141 153 171 165 137 119 141"/><polygon class="cls-8" points="142 325 113 365 166 356 142 325"/><polygon class="cls-23" points="153 171 144 235 171 224 153 171"/><polygon class="cls-5" points="144 235 161 254 171 224 144 235"/><polygon class="cls-16" points="132 73 126 101 172 108 132 73"/><polygon class="cls-27" points="126 101 165 137 172 108 126 101"/><polygon class="cls-41" points="140 45 132 73 182 80 140 45"/><polygon class="cls-28" points="132 73 172 108 182 80 132 73"/><polygon class="cls-30" points="140 45 182 80 188 56 140 45"/><polygon class="cls-36" points="140 19 140 45 188 56 140 19"/><polygon class="cls-41" points="160 0 140 19 188 56 160 0"/><polygon class="cls-42" points="153 171 171 224 190 201 153 171"/><polygon class="cls-15" points="171 224 161 254 191 264 171 224"/><polygon class="cls-41" points="142 325 166 356 198 302 142 325"/><polygon class="cls-13" points="191 264 161 254 198 302 191 264"/><polygon class="cls-7" points="124 287 142 325 198 302 124 287"/><polygon class="cls-43" points="161 254 124 287 198 302 161 254"/><polygon class="cls-13" points="190 201 171 224 205 254 190 201"/><polygon class="cls-11" points="171 224 191 264 205 254 171 224"/><polygon class="cls-15" points="191 264 198 302 210 261 191 264"/><polygon class="cls-36" points="205 254 191 264 210 261 205 254"/><polygon class="cls-11" points="165 137 153 171 218 153 165 137"/><polygon class="cls-40" points="153 171 190 201 218 153 153 171"/><polygon class="cls-22" points="172 108 165 137 218 153 172 108"/><polygon class="cls-43" points="166 356 113 365 219 363 166 356"/><polygon class="cls-27" points="160 0 188 56 221 9 160 0"/><polygon class="cls-44" points="182 80 172 108 227 101 182 80"/><polygon class="cls-27" points="172 108 218 153 227 101 172 108"/><polygon class="cls-4" points="198 302 166 356 227 338 198 302"/><polygon class="cls-28" points="166 356 219 363 227 338 166 356"/><polygon class="cls-45" points="188 56 182 80 228 66 188 56"/><polygon class="cls-27" points="182 80 227 101 228 66 182 80"/><polygon class="cls-11" points="221 9 188 56 228 66 221 9"/><polygon class="cls-16" points="205 254 210 261 228 227 205 254"/><polygon class="cls-46" points="190 201 205 254 228 227 190 201"/><polygon class="cls-11" points="198 302 227 338 238 333 198 302"/><polygon class="cls-46" points="221 9 228 66 241 22 221 9"/><polygon class="cls-15" points="210 261 198 302 243 275 210 261"/><polygon class="cls-31" points="198 302 238 333 243 275 198 302"/><polygon class="cls-25" points="228 227 210 261 243 275 228 227"/><polygon class="cls-38" points="227 338 219 363 251 358 227 338"/><polygon class="cls-24" points="238 333 227 338 251 358 238 333"/><polygon class="cls-17" points="218 153 190 201 257 182 218 153"/><polygon class="cls-47" points="190 201 228 227 257 182 190 201"/><polygon class="cls-34" points="228 66 227 101 257 64 228 66"/><polygon class="cls-45" points="241 22 228 66 257 64 241 22"/><polygon class="cls-16" points="228 227 243 275 264 250 228 227"/><polygon class="cls-48" points="257 182 228 227 264 250 257 182"/><polygon class="cls-35" points="227 101 218 153 271 153 227 101"/><polygon class="cls-40" points="218 153 257 182 271 153 218 153"/><polygon class="cls-47" points="221 9 241 22 272 6 221 9"/><polygon class="cls-34" points="160 0 221 9 272 6 160 0"/><polygon class="cls-11" points="241 22 257 64 272 21 241 22"/><polygon class="cls-49" points="272 6 241 22 272 21 272 6"/><polygon class="cls-13" points="272 21 257 64 275 68 272 21"/><polygon class="cls-14" points="238 333 251 358 275 321 238 333"/><polygon class="cls-39" points="243 275 238 333 275 321 243 275"/><polygon class="cls-8" points="227 101 271 153 279 99 227 101"/><polygon class="cls-50" points="257 64 227 101 279 99 257 64"/><polygon class="cls-40" points="275 68 257 64 279 99 275 68"/><polygon class="cls-39" points="275 321 251 358 279 366 275 321"/><polygon class="cls-36" points="251 358 219 363 279 366 251 358"/><polygon class="cls-30" points="264 250 243 275 282 282 264 250"/><polygon class="cls-26" points="243 275 275 321 282 282 243 275"/><polygon class="cls-13" points="282 282 275 321 286 320 282 282"/><polygon class="cls-28" points="279 99 271 153 300 108 279 99"/><polygon class="cls-51" points="275 68 279 99 300 108 275 68"/><polygon class="cls-43" points="275 321 279 366 304 345 275 321"/><polygon class="cls-13" points="286 320 275 321 304 345 286 320"/><polygon class="cls-52" points="257 182 264 250 307 206 257 182"/><polygon class="cls-39" points="271 153 257 182 307 206 271 153"/><polygon class="cls-24" points="304 345 279 366 308 361 304 345"/><polygon class="cls-7" points="282 282 286 320 316 312 282 282"/><polygon class="cls-48" points="286 320 304 345 316 312 286 320"/><polygon class="cls-15" points="282 282 316 312 324 282 282 282"/><polygon class="cls-44" points="264 250 282 282 324 282 264 250"/><polygon class="cls-15" points="307 206 264 250 324 282 307 206"/><polygon class="cls-28" points="272 21 275 68 325 27 272 21"/><polygon class="cls-45" points="272 6 272 21 325 27 272 6"/><polygon class="cls-39" points="300 108 271 153 335 159 300 108"/><polygon class="cls-11" points="271 153 307 206 335 159 271 153"/><polygon class="cls-36" points="300 108 335 159 335 116 300 108"/><polygon class="cls-35" points="333 25 325 27 336 74 333 25"/><polygon class="cls-44" points="300 108 335 116 336 74 300 108"/><polygon class="cls-53" points="275 68 300 108 336 74 275 68"/><polygon class="cls-26" points="325 27 275 68 336 74 325 27"/><polygon class="cls-41" points="272 6 325 27 336 1 272 6"/><polygon class="cls-46" points="325 27 333 25 336 1 325 27"/><polygon class="cls-31" points="160 0 272 6 336 1 160 0"/><polygon class="cls-44" points="307 206 324 282 340 267 307 206"/><polygon class="cls-35" points="335 159 307 206 350 165 335 159"/><polygon class="cls-44" points="335 116 335 159 350 165 335 116"/><polygon class="cls-40" points="307 206 340 267 357 212 307 206"/><polygon class="cls-3" points="350 165 307 206 357 212 350 165"/><polygon class="cls-11" points="324 282 316 312 360 322 324 282"/><polygon class="cls-11" points="304 345 308 361 360 322 304 345"/><polygon class="cls-48" points="316 312 304 345 360 322 316 312"/><polygon class="cls-27" points="340 267 324 282 360 275 340 267"/><polygon class="cls-13" points="324 282 360 322 360 275 324 282"/><polygon class="cls-16" points="360 322 308 361 366 369 360 322"/><polygon class="cls-19" points="308 361 279 366 366 369 308 361"/><polygon class="cls-7" points="360 322 366 369 375 368 360 322"/><polygon class="cls-16" points="336 1 333 25 376 7 336 1"/><polygon class="cls-34" points="357 212 340 267 383 226 357 212"/><polygon class="cls-42" points="340 267 360 275 383 226 340 267"/><polygon class="cls-13" points="360 322 375 368 389 369 360 322"/><polygon class="cls-13" points="375 368 366 369 389 369 375 368"/><polygon class="cls-51" points="333 25 336 74 394 47 333 25"/><polygon class="cls-28" points="376 7 333 25 394 47 376 7"/><polygon class="cls-27" points="350 165 357 212 394 187 350 165"/><polygon class="cls-15" points="357 212 383 226 394 187 357 212"/><polygon class="cls-17" points="360 275 360 322 398 294 360 275"/><polygon class="cls-16" points="336 74 335 116 406 97 336 74"/><polygon class="cls-47" points="394 47 336 74 406 97 394 47"/><polygon class="cls-42" points="350 165 394 187 406 117 350 165"/><polygon class="cls-27" points="335 116 350 165 406 117 335 116"/><polygon class="cls-51" points="406 97 335 116 406 117 406 97"/><polygon class="cls-40" points="376 7 394 47 413 27 376 7"/><polygon class="cls-41" points="383 226 360 275 416 276 383 226"/><polygon class="cls-11" points="360 275 398 294 416 276 360 275"/><polygon class="cls-47" points="383 226 416 276 425 242 383 226"/><polygon class="cls-11" points="360 322 389 369 429 336 360 322"/><polygon class="cls-8" points="398 294 360 322 429 336 398 294"/><polygon class="cls-26" points="429 336 389 369 432 364 429 336"/><polygon class="cls-5" points="394 187 383 226 436 196 394 187"/><polygon class="cls-45" points="383 226 425 242 436 196 383 226"/><polygon class="cls-47" points="416 276 398 294 446 317 416 276"/><polygon class="cls-14" points="398 294 429 336 446 317 398 294"/><polygon class="cls-11" points="436 196 425 242 449 199 436 196"/><polygon class="cls-5" points="413 27 394 47 456 65 413 27"/><polygon class="cls-14" points="453 37 413 27 456 65 453 37"/><polygon class="cls-34" points="394 47 406 97 456 65 394 47"/><polygon class="cls-39" points="416 276 446 317 459 294 416 276"/><polygon class="cls-27" points="406 117 394 187 460 148 406 117"/><polygon class="cls-54" points="394 187 436 196 460 148 394 187"/><polygon class="cls-11" points="456 65 406 97 462 102 456 65"/><polygon class="cls-45" points="406 97 406 117 462 102 406 97"/><polygon class="cls-14" points="406 117 460 148 462 102 406 117"/><polygon class="cls-49" points="429 336 432 364 467 353 429 336"/><polygon class="cls-20" points="446 317 429 336 467 353 446 317"/><polygon class="cls-13" points="436 196 449 199 467 175 436 196"/><polygon class="cls-15" points="460 148 436 196 467 175 460 148"/><polygon class="cls-14" points="425 242 416 276 469 260 425 242"/><polygon class="cls-8" points="416 276 459 294 469 260 416 276"/><polygon class="cls-28" points="449 199 425 242 469 260 449 199"/><polygon class="cls-40" points="462 102 460 148 473 99 462 102"/><polygon class="cls-35" points="456 65 462 102 473 99 456 65"/><polygon class="cls-5" points="336 1 376 7 484 6 336 1"/><polygon class="cls-47" points="413 27 453 37 484 6 413 27"/><polygon class="cls-50" points="376 7 413 27 484 6 376 7"/><path class="cls-5" d="M474.5-4l-11,93Z" transform="translate(9.5 10)"/><polygon class="cls-45" points="449 199 469 260 488 225 449 199"/><polygon class="cls-41" points="459 294 446 317 493 325 459 294"/><polygon class="cls-5" points="446 317 467 353 493 325 446 317"/><polygon class="cls-15" points="467 175 449 199 499 199 467 175"/><polygon class="cls-43" points="449 199 488 225 499 199 449 199"/><polygon class="cls-44" points="484 6 473 99 504 50 484 6"/><polygon class="cls-17" points="484 6 484 6 504 50 484 6"/><polygon class="cls-41" points="453 37 456 65 504 50 453 37"/><polygon class="cls-14" points="484 6 453 37 504 50 484 6"/><polygon class="cls-44" points="473 99 484 6 504 50 473 99"/><polygon class="cls-5" points="456 65 473 99 506 86 456 65"/><polygon class="cls-16" points="504 50 456 65 506 86 504 50"/><polygon class="cls-44" points="473 99 460 148 507 122 473 99"/><polygon class="cls-5" points="506 86 473 99 507 122 506 86"/><polygon class="cls-28" points="467 175 499 199 508 161 467 175"/><polygon class="cls-50" points="460 148 467 175 508 161 460 148"/><polygon class="cls-42" points="507 122 460 148 508 161 507 122"/><polygon class="cls-30" points="469 260 459 294 509 296 469 260"/><polygon class="cls-26" points="459 294 493 325 509 296 459 294"/><polygon class="cls-29" points="493 325 467 353 510 363 493 325"/><polygon class="cls-45" points="467 353 432 364 510 363 467 353"/><polygon class="cls-43" points="488 225 469 260 522 265 488 225"/><polygon class="cls-15" points="469 260 509 296 522 265 469 260"/><polygon class="cls-3" points="493 325 510 363 529 344 493 325"/><polygon class="cls-53" points="507 122 508 161 531 138 507 122"/><polygon class="cls-17" points="499 199 488 225 532 237 499 199"/><polygon class="cls-5" points="488 225 522 265 532 237 488 225"/><polygon class="cls-30" points="509 296 493 325 533 334 509 296"/><polygon class="cls-49" points="493 325 529 344 533 334 493 325"/><polygon class="cls-44" points="531 138 508 161 537 193 531 138"/><polygon class="cls-27" points="508 161 499 199 537 193 508 161"/><polygon class="cls-27" points="499 199 532 237 537 193 499 199"/><polygon class="cls-37" points="522 265 509 296 543 304 522 265"/><polygon class="cls-39" points="509 296 533 334 543 304 509 296"/><polygon class="cls-13" points="531 138 537 193 547 88 531 138"/><polygon class="cls-5" points="504 50 506 86 547 88 504 50"/><polygon class="cls-30" points="506 86 507 122 547 88 506 86"/><polygon class="cls-16" points="507 122 531 138 547 88 507 122"/><polygon class="cls-40" points="504 50 547 88 548 27 504 50"/><polygon class="cls-29" points="484 6 504 50 548 16 484 6"/><polygon class="cls-31" points="504 50 548 27 548 16 504 50"/><polygon class="cls-49" points="522 265 543 304 548 273 522 265"/><polygon class="cls-29" points="548 273 543 304 555 254 548 273"/><polygon class="cls-17" points="537 193 532 237 555 254 537 193"/><polygon class="cls-13" points="532 237 522 265 555 254 532 237"/><polygon class="cls-30" points="522 265 548 273 555 254 522 265"/><polygon class="cls-35" points="547 88 537 193 555 254 547 88"/><polygon class="cls-13" points="548 16 548 27 556 0 548 16"/><polygon class="cls-42" points="484 6 548 16 556 0 484 6"/><polygon class="cls-22" points="548 27 547 88 556 0 548 27"/><polygon class="cls-15" points="336 1 484 6 556 0 336 1"/><polygon class="cls-55" points="555 254 543 304 556 370 555 254"/><polygon class="cls-7" points="543 304 533 334 556 370 543 304"/><polygon class="cls-29" points="533 334 529 344 556 370 533 334"/><polygon class="cls-10" points="529 344 510 363 556 370 529 344"/><polygon class="cls-17" points="510 363 432 364 556 370 510 363"/></g></svg>